<svg width="14" height="13" viewBox="0 0 14 13" fill="none" xmlns="http://www.w3.org/2000/svg">
<path fill-rule="evenodd" clip-rule="evenodd" d="M5 12.2092C5 12.6459 5.35409 13 5.79087 13H7.85932C8.2961 13 8.65019 12.6459 8.65019 12.2092V8.2909H12.7091C13.1459 8.2909 13.5 7.93682 13.5 7.50003V5.7909C13.5 5.35412 13.1459 5.00003 12.7091 5.00003H8.65019V0.790905C8.65019 0.354117 8.2961 3.04985e-05 7.85931 3.05176e-05L5.79087 3.06731e-05C5.35409 3.06731e-05 5 0.354117 5 0.790905V5.00003H1.29087C0.854087 5.00003 0.5 5.35412 0.5 5.7909L0.5 7.50003C0.5 7.93682 0.854086 8.2909 1.29087 8.2909H5V12.2092Z" fill="url(#paint0_linear_3620_1672)"/>
<defs>
<linearGradient id="paint0_linear_3620_1672" x1="2.95156" y1="1.48446" x2="10.891" y2="13" gradientUnits="userSpaceOnUse">
<stop offset="0.0572917" stop-color="#A0D708"/>
<stop offset="0.322917" stop-color="#8FC300"/>
<stop offset="1" stop-color="#306D06"/>
</linearGradient>
</defs>
</svg>
